<?xml version="1.0" encoding="utf-8"?>
<svg width="511px" height="149px" viewbox="0 0 511 149" version="1.1" xmlns:xlink="http://www.w3.org/1999/xlink" xmlns="http://www.w3.org/2000/svg">
  <defs>
    <path d="M0 0L149 0L149 149L0 149L0 0L0 0Z" id="path_1" />
    <path d="M0 0L61.9281 0L61.9281 55.0472L0 55.0472L0 0L0 0Z" id="path_2" />
    <path d="M0 0L351.333 0L351.333 113.508L0 113.508L0 0Z" id="path_3" />
    <path d="M0 0L350.793 0L350.793 113.21L0 113.21L0 0L0 0Z" id="path_4" />
    <clipPath id="mask_1">
      <use xlink:href="#path_1" />
    </clipPath>
    <clipPath id="mask_2">
      <use xlink:href="#path_2" />
    </clipPath>
    <clipPath id="mask_3">
      <use xlink:href="#path_3" />
    </clipPath>
    <clipPath id="mask_4">
      <use xlink:href="#path_4" />
    </clipPath>
  </defs>
  <g id="Group">
    <g id="Spidre-Logo-Icon">
      <g id="Group">
        <g id="blob-(1)">
          <path d="M0 0L149 0L149 149L0 149L0 0L0 0Z" id="Background" fill="none" fill-rule="evenodd" stroke="none" />
          <g id="Mask-group">
            <path d="M0 0L149 0L149 149L0 149L0 0L0 0Z" id="path_1" fill="none" fill-rule="evenodd" stroke="none" />
            <g clip-path="url(#mask_1)">
              <g id="Group" transform="translate(16.288645 19.676613)">
                <path d="M98.8138 16.6794C111.032 26.4389 121.238 40.5939 121.834 55.4939C122.505 70.3194 113.565 85.8151 101.347 96.6176C89.2033 107.42 73.7074 113.529 58.5839 113.231C43.4604 112.859 28.7094 106.005 18.1304 95.2021C7.62589 84.3251 1.29336 69.5744 0.175858 53.7059C-0.941643 37.8374 3.23036 20.9259 13.7349 11.1664C24.3139 1.48139 41.2253 -1.05161 56.7959 0.363896C72.4408 1.7049 86.5958 6.9944 98.8138 16.6794L98.8138 16.6794L98.8138 16.6794Z" id="Shape" fill="#FCC304" fill-rule="evenodd" stroke="none" />
              </g>
            </g>
          </g>
        </g>
        <g id="spider" transform="translate(43.675625 47.680023)">
          <path d="M0 0L61.9281 0L61.9281 55.0472L0 55.0472L0 0L0 0Z" id="Background#1" fill="none" fill-rule="evenodd" stroke="none" />
          <g id="Mask-group">
            <path d="M0 0L61.9281 0L61.9281 55.0472L0 55.0472L0 0L0 0Z" id="path_2" fill="none" fill-rule="evenodd" stroke="none" />
            <g clip-path="url(#mask_2)">
              <g id="Group" transform="translate(6.820679E-05 -0.0008866883)">
                <path d="M16.2528 17.9934L19.0407 18.9234L19.5428 18.9234L20.104 16.1151C20.1814 15.7302 20.2975 15.3001 20.4491 14.8475L18.2677 10.4846L20.8265 2.80915C21.1265 1.90818 20.6405 0.934103 19.7385 0.633061L18.1075 0.0890383C17.2065 -0.212001 16.2313 0.275038 15.9314 1.17708L13.1478 9.52877C12.8596 10.3944 12.9265 11.339 13.3339 12.1553L16.2528 17.9934L16.2528 17.9934L16.2528 17.9934ZM61.6389 37.5642L55.9675 29.0576C55.3295 28.1007 54.2556 27.5258 53.1055 27.5256L44.7258 27.5256L52.1432 24.9065C52.8691 24.6643 53.4936 24.1873 53.9183 23.5508L59.6811 14.9056C60.2079 14.1154 59.9939 13.0467 59.2037 12.5198L57.7727 11.5651C56.9825 11.0383 55.9137 11.2522 55.3869 12.0425L49.951 20.1952L43.4464 22.3638L39.5652 22.3638L38.4502 16.7892C38.2148 15.6097 36.5827 10.3222 30.964 10.3222C25.3453 10.3222 23.7133 15.6097 23.4778 16.7892L22.3629 22.3638L18.4816 22.3638L11.9781 20.1952L6.54109 12.0425C6.01427 11.2522 4.94666 11.0383 4.15536 11.5651L2.72434 12.5198C1.93412 13.0467 1.72016 14.1142 2.24698 14.9056L8.00972 23.5508C8.43437 24.1873 9.0589 24.6643 9.78483 24.9065L17.2022 27.5245L8.82251 27.5245C7.67216 27.5247 6.59788 28.0995 5.95944 29.0566L0.289148 37.5642C-0.237672 38.3544 -0.0247932 39.4231 0.766508 39.9499L2.19753 40.9046C2.98776 41.4315 4.05644 41.2175 4.58326 40.4273L9.74393 32.6863L14.8035 32.6863L8.26347 43.1506C7.92181 43.6974 7.74077 44.3292 7.74092 44.974L7.74092 53.3278C7.74092 54.2783 8.51073 55.0481 9.4612 55.0481L11.1814 55.0481C12.1318 55.0481 12.9016 54.2783 12.9016 53.3278L12.9016 45.4675L20.8663 32.7239C20.7577 34.2345 20.6426 35.7461 20.6426 37.2621C20.6426 42.9678 25.0249 48.1672 30.964 48.1672C36.9031 48.1672 41.2854 42.9678 41.2854 37.2621C41.2854 35.7461 41.1692 34.2345 41.0617 32.7239L49.0264 45.4675L49.0264 53.3278C49.0264 54.2783 49.7962 55.0481 50.7466 55.0481L52.4669 55.0481C53.4173 55.0481 54.1871 54.2783 54.1871 53.3278L54.1871 44.973C54.1871 44.3279 54.0054 43.6957 53.6645 43.1495L47.1245 32.6852L52.184 32.6852L57.3447 40.4262C57.8716 41.2164 58.9402 41.4303 59.7305 40.9035L61.1615 39.9488C61.9528 39.422 62.1657 38.3544 61.6389 37.5642L61.6389 37.5642L61.6389 37.5642ZM43.6604 10.4846L41.4789 14.8475C41.6305 15.3001 41.7466 15.7302 41.824 16.1151L42.3852 18.9234L42.8873 18.9234L45.6751 17.9934L48.5942 12.1553C49.0021 11.3391 49.069 10.3943 48.7801 9.52877L45.9966 1.17708C45.6967 0.276115 44.7215 -0.212001 43.8205 0.0890354L42.1896 0.633058C41.2886 0.934101 40.8016 1.90818 41.1015 2.80915L43.6604 10.4846L43.6604 10.4846L43.6604 10.4846Z" id="Shape#1" fill="#111111" fill-rule="evenodd" stroke="none" />
              </g>
            </g>
          </g>
        </g>
      </g>
    </g>
    <g id="Spidre-Text-Logo" transform="translate(159 18)">
      <path d="M0 0L351.333 0L351.333 113.508L0 113.508L0 0Z" id="Background" fill="none" fill-rule="evenodd" stroke="none" />
      <g clip-path="url(#mask_3)">
        <g id="Asset-239">
          <path d="M0 0L350.793 0L350.793 113.21L0 113.21L0 0L0 0Z" id="Background" fill="none" fill-rule="evenodd" stroke="none" />
          <g id="Mask-group">
            <path d="M0 0L350.793 0L350.793 113.21L0 113.21L0 0L0 0Z" id="path_1" fill="none" fill-rule="evenodd" stroke="none" />
            <g clip-path="url(#mask_4)">
              <g id="Group" transform="translate(0.50655586 -0.027163733)">
                <g id="Layer_2">
                  <g id="Layer_1-2">
                    <path d="M30.3776 66.7806C25.0025 66.8809 19.6489 66.0769 14.5404 64.4024C10.3188 63.0995 6.56436 60.6028 3.73021 57.2135C1.1009 53.7437 -0.211192 49.4529 0.027705 45.1061L18.4051 45.1061C18.3231 47.0289 19.3826 48.8196 21.1077 49.6734C23.181 50.6215 25.452 51.0571 27.7291 50.9436C29.1604 50.9949 30.5892 50.7841 31.9448 50.322C32.8986 49.9755 33.7523 49.4002 34.4315 48.6464C34.9509 48.0035 35.2368 47.203 35.2422 46.3763C35.2809 45.3988 34.8609 44.4591 34.1072 43.8359C33.024 43.0159 31.8208 42.3686 30.5398 41.917L15.2431 35.9984C11.2597 34.5017 7.69214 32.074 4.83826 28.9177C2.40523 26.0764 1.09764 22.4421 1.16278 18.702C1.15128 13.1504 4.08225 8.00821 8.865 5.18919C15.2247 1.44364 22.548 -0.342547 29.9182 0.0542664C38.278 0.054269 44.7012 2.00012 49.1875 5.89181C53.5994 9.56502 56.1047 15.043 55.9979 20.7829L37.3502 20.7829C37.3411 19.4074 36.7165 18.1083 35.6474 17.2426C33.9653 16.1033 31.9419 15.5783 29.9182 15.7562C28.1156 15.664 26.3195 16.0362 24.7021 16.8372C23.5455 17.3598 22.8044 18.5138 22.8103 19.783C22.8103 21.4045 24.1346 22.6747 26.8101 23.5936L44.1067 30.5933C47.8902 31.9651 51.3366 34.1307 54.2142 36.9443C56.682 39.4963 58.0168 42.9356 57.9168 46.4844C57.8641 50.0918 56.5979 53.5762 54.3221 56.3757C51.7006 59.6604 48.3264 62.2654 44.485 63.9699C40.0471 65.9353 35.2295 66.8952 30.3774 66.7806L30.3776 66.7806L30.3776 66.7806Z" transform="translate(0 28.890337)" id="Shape" fill="#111111" fill-rule="evenodd" stroke="none" />
                    <path d="M0 95.0257L0 1.9763L16.5937 1.9763L20.3503 18.3268L20.3503 95.0257L0 95.0257L0 95.0257ZM34.4036 66.6487C30.3733 66.8241 26.3721 65.8893 22.8366 63.9462C19.5785 61.8995 17.1182 58.8002 15.8641 55.1628C14.1583 50.1747 13.3708 44.9188 13.5398 39.6501L20.3503 39.6501C20.3495 41.2092 20.8616 42.7286 21.8078 43.9715C22.8421 45.2904 24.2028 46.316 25.7554 46.947C27.461 47.6832 29.3028 48.0516 31.1605 48.0281C33.2448 48.0292 35.303 47.5676 37.1873 46.6768C39.3277 45.6222 41.1333 43.9942 42.4032 41.9743C43.9223 39.3737 44.6547 36.3884 44.5112 33.3802C44.5725 30.6665 44.0374 27.9726 42.9437 25.4886C41.9662 23.3641 40.4119 21.5568 38.4575 20.2726C36.3732 19.0136 33.9731 18.3761 31.5389 18.4349C29.5293 18.4038 27.5431 18.8679 25.7554 19.7862C24.0902 20.6325 22.7091 21.9478 21.7826 23.5698C20.7972 25.3253 20.3024 27.3137 20.3503 29.3263L13.5398 29.3263C13.2959 23.4666 14.3478 17.6253 16.6207 12.219C19.8591 4.68163 27.3364 -0.14666 35.5387 0.00339955C40.5568 -0.00222942 45.4814 1.36205 49.7812 3.94915C54.3983 6.68209 58.19 10.6137 60.7536 15.3269C63.7097 20.8738 65.1631 27.0975 64.9696 33.3802C65.169 39.6526 63.6953 45.8649 60.6995 51.3792C55.4301 60.8926 45.3866 66.7693 34.5117 66.7028L34.4036 66.6487L34.4036 66.6487Z" transform="translate(65.3757 28.917637)" id="Shape#1" fill="#111111" fill-rule="evenodd" stroke="none" />
                    <path d="M12.1058 22.8873C8.85487 23.1021 5.64758 22.0459 3.16036 19.9415C0.95475 17.7325 -0.188272 14.6779 0.0253819 11.5636C-0.132301 8.44157 1.00143 5.39224 3.16038 3.13157C8.35271 -1.04386 15.7509 -1.04385 20.9432 3.13157C23.1557 5.36518 24.3318 8.42311 24.1863 11.5636C24.3718 14.6944 23.1884 17.7515 20.9432 19.9415C18.4808 22.0144 15.3195 23.0682 12.1058 22.8873L12.1058 22.8873L12.1058 22.8873ZM1.91712 93.6133L1.91712 30.5895L22.2674 30.5895L22.2674 93.6133L1.91712 93.6133L1.91712 93.6133Z" transform="translate(137.85847 0)" id="Shape#2" fill="#111111" fill-rule="evenodd" stroke="none" />
                    <path d="M29.1985 89.7791C23.9665 89.8345 18.831 88.3698 14.4154 85.5631C9.89555 82.6438 6.25274 78.5527 3.87538 73.7259C1.19317 68.2375 -0.132198 62.1852 0.0106909 56.0782C-0.130466 50.0963 1.12815 44.1642 3.68616 38.7547C5.91385 34.0742 9.36981 30.086 13.6857 27.2148C17.8703 24.4598 22.7834 23.0197 27.7932 23.0798C32.0448 22.954 36.236 24.1124 39.8196 26.404C43.3089 28.8979 45.9422 32.4094 47.3597 36.4576C49.2634 41.8624 50.1788 47.5656 50.0623 53.2945L44.2788 53.2945C44.3229 51.1195 43.7815 48.9726 42.7113 47.0786C40.7147 43.5856 36.9778 41.4533 32.9548 41.5114C28.1159 41.3243 23.6724 44.1715 21.8204 48.6461C20.8162 50.993 20.3189 53.5256 20.361 56.0782C20.3133 58.7388 20.8195 61.3801 21.8474 63.8345C22.7419 66.0052 24.2315 67.8789 26.1445 69.2397C28.0607 70.5731 30.3506 71.2639 32.6845 71.2125C34.6888 71.2039 36.6484 70.6223 38.3329 69.5369C40.095 68.4048 41.5595 66.8663 42.6032 65.0507C43.7015 63.2227 44.281 61.1295 44.2785 58.9969L49.9269 58.9969C50.1182 64.9499 49.1356 70.882 47.0354 76.4555C45.5012 80.4848 42.8475 83.9916 39.3869 86.5631C36.4103 88.6735 32.8472 89.7981 29.1985 89.7791L29.1985 89.7791L29.1985 89.7791ZM48.3597 87.7523L44.3599 71.4017L44.3599 0L64.9534 0L64.9534 87.7523L48.3597 87.7523L48.3597 87.7523Z" transform="translate(169.47856 5.8900595)" id="Shape#3" fill="#111111" fill-rule="evenodd" stroke="none" />
                    <path d="M0 63.8886L0 0.864837L20.3503 0.864837L20.3503 63.8886L0 63.8886L0 63.8886ZM16.2153 37.1873C15.9872 30.0471 17.0868 22.9269 19.4584 16.1883C21.0546 11.5047 23.85 7.321 27.5661 4.05385C30.4011 1.52881 34.0404 0.0922207 37.8358 0L39.8628 2.57737e-06C40.5071 0.0664703 41.1473 0.165691 41.7816 0.297286L41.9708 20.7827C40.9168 20.6476 39.8087 20.5395 38.7277 20.4854L35.5927 20.4854C32.8885 20.428 30.2073 20.992 27.7553 22.134C25.4173 23.2402 23.5152 25.0948 22.3501 27.404C20.9788 30.4384 20.3401 33.7526 20.4854 37.0792L16.2153 37.1873L16.2153 37.1873Z" transform="translate(241.90724 27.728405)" id="Shape#4" fill="#111111" fill-rule="evenodd" stroke="none" />
                    <path d="M30.3382 66.5717C25.1262 66.5809 20.0088 65.1802 15.5281 62.5179C10.8192 59.7029 6.94724 55.6817 4.31245 50.8698C1.36104 45.4155 -0.119879 39.2869 0.0154023 33.087C-0.169055 26.885 1.30501 20.7461 4.28544 15.3041C6.91229 10.5726 10.7809 6.64796 15.4741 3.95328C19.99 1.34023 25.1209 -0.0217813 30.3382 0.00752591C35.1123 -0.101504 39.8388 0.975667 44.0942 3.14252C47.8673 5.11047 51.1044 7.96738 53.5262 11.4664C55.9534 15.0935 57.5582 19.2073 58.2286 23.5198C58.9778 28.118 58.8219 32.8186 57.7692 37.357L15.9876 37.357L15.9876 27.0873L43.0132 27.0873L40.0945 29.0061C40.229 27.5008 40.1745 25.9845 39.9323 24.4928C39.7074 23.0127 39.2418 21.5795 38.554 20.2497C37.8832 18.9753 36.8852 17.9025 35.6623 17.1418C34.2129 16.2998 32.5538 15.8873 30.8787 15.9527C28.8818 15.9008 26.915 16.4467 25.2303 17.5202C23.5212 18.5985 22.1822 20.1732 21.3927 22.0334C20.4683 24.3238 20.0267 26.7803 20.0955 29.2493L20.0955 37.357C20.0445 39.7134 20.4293 42.0589 21.2306 44.2756C21.8907 46.093 23.0759 47.6732 24.6358 48.8159C26.3062 49.948 28.2948 50.5161 30.3112 50.4374C32.0197 50.4752 33.7107 50.085 35.2298 49.3023C36.6384 48.5229 37.6862 47.223 38.1486 45.6809L58.3638 45.6809C57.7676 49.5221 56.2053 53.1489 53.8235 56.2209C51.2582 59.478 47.9497 62.0728 44.1753 63.7881C39.8282 65.7361 35.1004 66.6871 30.3382 66.5717L30.3382 66.5717L30.3382 66.5717Z" transform="translate(288.66776 25.585848)" id="Shape#5" fill="#111111" fill-rule="evenodd" stroke="none" />
                  </g>
                </g>
              </g>
            </g>
          </g>
        </g>
      </g>
    </g>
  </g>
</svg>