<svg xmlns="http://www.w3.org/2000/svg" width="169" height="50" viewBox="0 0 169 50">
    <g fill="none" fill-rule="evenodd">
        <g fill-rule="nonzero">
            <g>
                <g>
                    <path fill="#A6A6A6" d="M162.523 50H5.903C2.65 50 0 47.34 0 44.084V5.907C0 2.65 2.649 0 5.903 0h156.62c3.253 0 5.996 2.65 5.996 5.907v38.177c0 3.256-2.743 5.916-5.996 5.916z" transform="translate(-837 -6487) translate(98 6101) translate(739 386)"/>
                    <path fill="#000" d="M167.31 44.085c0 2.645-2.14 4.788-4.786 4.788H5.904c-2.646 0-4.793-2.143-4.793-4.788V5.906c0-2.643 2.147-4.793 4.792-4.793h156.62c2.648 0 4.787 2.15 4.787 4.793v38.179z" transform="translate(-837 -6487) translate(98 6101) translate(739 386)"/>
                    <g fill="#FFF">
                        <path d="M22.629 17.23c-.036-4.029 3.294-5.989 3.446-6.08-1.886-2.754-4.81-3.13-5.837-3.16-2.455-.259-4.837 1.471-6.087 1.471-1.276 0-3.202-1.446-5.278-1.404-2.672.042-5.17 1.59-6.541 3.995-2.829 4.904-.72 12.11 1.99 16.074 1.356 1.941 2.94 4.109 5.014 4.033 2.028-.084 2.786-1.295 5.234-1.295 2.425 0 3.137 1.295 5.252 1.246 2.177-.035 3.547-1.95 4.855-3.909 1.567-2.225 2.196-4.416 2.221-4.529-.051-.017-4.228-1.613-4.27-6.442zM18.634 5.383c1.091-1.367 1.838-3.225 1.63-5.112-1.578.07-3.553 1.094-4.69 2.43C14.567 3.88 13.669 5.81 13.9 7.624c1.774.132 3.595-.896 4.733-2.241z" transform="translate(-837 -6487) translate(98 6101) translate(739 386) translate(14.98 7.5)"/>
                    </g>
                    <g fill="#FFF">
                        <path d="M14.536 16.88h-2.835l-1.552-4.886H4.75l-1.48 4.886H.512L5.86.245h3.303l5.374 16.635zM9.68 9.944L8.276 5.6c-.148-.444-.427-1.489-.837-3.134h-.05c-.164.708-.427 1.753-.79 3.134L5.22 9.944h4.46zM28.289 10.735c0 2.04-.55 3.652-1.652 4.836-.986 1.054-2.21 1.58-3.672 1.58-1.578 0-2.712-.567-3.402-1.702h-.05v6.318h-2.661V8.834c0-1.283-.034-2.599-.099-3.949h2.34l.15 1.901h.05c.887-1.432 2.234-2.147 4.041-2.147 1.413 0 2.593.558 3.537 1.677.946 1.12 1.418 2.593 1.418 4.419zm-2.712.098c0-1.168-.262-2.13-.789-2.888-.575-.79-1.348-1.185-2.316-1.185-.657 0-1.254.22-1.787.654-.534.437-.883 1.008-1.047 1.716-.082.33-.124.6-.124.813v2c0 .872.268 1.608.802 2.21.534.6 1.228.9 2.082.9 1.002 0 1.783-.387 2.34-1.16.56-.773.84-1.793.84-3.06zM42.066 10.735c0 2.04-.55 3.652-1.653 4.836-.985 1.054-2.21 1.58-3.671 1.58-1.578 0-2.711-.567-3.4-1.702h-.05v6.318H30.63V8.834c0-1.283-.033-2.599-.098-3.949h2.34l.149 1.901h.05c.886-1.432 2.233-2.147 4.042-2.147 1.412 0 2.591.558 3.537 1.677.943 1.12 1.416 2.593 1.416 4.419zm-2.711.098c0-1.168-.264-2.13-.79-2.888-.576-.79-1.346-1.185-2.316-1.185-.658 0-1.253.22-1.788.654-.534.437-.882 1.008-1.046 1.716-.08.33-.123.6-.123.813v2c0 .872.267 1.608.799 2.21.534.6 1.228.9 2.084.9 1.003 0 1.783-.387 2.34-1.16.56-.773.84-1.793.84-3.06zM57.47 12.215c0 1.415-.49 2.566-1.476 3.455-1.082.971-2.589 1.456-4.525 1.456-1.787 0-3.22-.345-4.305-1.036l.617-2.221c1.168.707 2.45 1.062 3.847 1.062 1.002 0 1.782-.227 2.343-.68.558-.452.836-1.06.836-1.817 0-.675-.23-1.244-.69-1.705-.458-.461-1.223-.89-2.292-1.286-2.908-1.087-4.361-2.678-4.361-4.77 0-1.368.509-2.49 1.529-3.362C50.009.438 51.364.001 53.06.001c1.511 0 2.767.264 3.77.79l-.666 2.173c-.936-.51-1.995-.765-3.18-.765-.935 0-1.667.231-2.191.691-.443.411-.666.913-.666 1.506 0 .658.254 1.202.763 1.629.443.395 1.248.822 2.417 1.284 1.43.576 2.479 1.25 3.154 2.022.673.77 1.009 1.734 1.009 2.884zM66.269 6.885h-2.933v5.824c0 1.481.516 2.221 1.552 2.221.476 0 .87-.041 1.182-.124l.074 2.024c-.524.196-1.214.295-2.07.295-1.05 0-1.872-.321-2.465-.962-.59-.643-.887-1.72-.887-3.234V6.883h-1.748v-2h1.748V2.686l2.614-.79v2.987h2.933v2.002zM79.505 10.784c0 1.843-.527 3.357-1.578 4.541-1.103 1.219-2.566 1.826-4.39 1.826-1.757 0-3.156-.584-4.2-1.751-1.043-1.168-1.565-2.641-1.565-4.418 0-1.858.537-3.38 1.614-4.564C70.46 5.232 71.91 4.64 73.735 4.64c1.758 0 3.172.584 4.24 1.753 1.02 1.133 1.53 2.597 1.53 4.39zm-2.762.086c0-1.106-.236-2.055-.714-2.846-.558-.958-1.355-1.435-2.389-1.435-1.07 0-1.882.478-2.44 1.435-.478.792-.714 1.756-.714 2.896 0 1.106.236 2.055.714 2.845.575.957 1.38 1.435 2.416 1.435 1.016 0 1.814-.487 2.39-1.46.49-.806.737-1.765.737-2.87zM88.155 7.229c-.263-.049-.544-.074-.839-.074-.936 0-1.66.354-2.17 1.062-.442.625-.665 1.415-.665 2.37v6.293h-2.66l.025-8.217c0-1.383-.033-2.642-.1-3.777h2.319l.097 2.295h.074c.28-.788.724-1.423 1.33-1.9.593-.428 1.234-.642 1.924-.642.246 0 .468.017.665.048V7.23zM100.058 10.315c0 .478-.032.88-.098 1.209h-7.984c.031 1.185.417 2.091 1.159 2.716.672.559 1.542.839 2.611.839 1.182 0 2.26-.189 3.23-.568l.417 1.85c-1.133.495-2.471.741-4.015.741-1.858 0-3.316-.547-4.377-1.64-1.058-1.095-1.589-2.563-1.589-4.406 0-1.808.493-3.315 1.48-4.516 1.034-1.282 2.431-1.924 4.189-1.924 1.726 0 3.033.642 3.92 1.924.703 1.019 1.057 2.279 1.057 3.775zm-2.538-.691c.017-.79-.156-1.473-.517-2.049-.46-.741-1.168-1.111-2.12-1.111-.87 0-1.579.361-2.12 1.086-.442.576-.706 1.268-.787 2.073h5.544z" transform="translate(-837 -6487) translate(98 6101) translate(739 386) translate(52.428 22.5)"/>
                    </g>
                    <g fill="#FFF">
                        <path d="M7.552 5.011c0 1.471-.44 2.579-1.32 3.323-.816.686-1.974 1.03-3.475 1.03-.744 0-1.38-.033-1.913-.098V1.227c.695-.112 1.444-.17 2.253-.17 1.43 0 2.507.312 3.233.934.814.704 1.222 1.71 1.222 3.02zm-1.38.037c0-.954-.251-1.686-.756-2.196-.504-.508-1.24-.763-2.21-.763-.412 0-.763.027-1.054.085v6.111c.161.025.456.036.884.036 1.001 0 1.774-.278 2.318-.836.544-.558.819-1.37.819-2.438zM14.866 6.296c0 .906-.259 1.649-.775 2.231-.542.6-1.26.898-2.156.898-.864 0-1.552-.286-2.065-.861-.512-.574-.768-1.298-.768-2.17 0-.913.264-1.662.793-2.243.53-.581 1.241-.872 2.137-.872.864 0 1.558.286 2.084.86.499.557.75 1.277.75 2.157zm-1.357.043c0-.544-.117-1.01-.35-1.399-.275-.47-.666-.705-1.174-.705-.526 0-.925.235-1.2.705-.234.389-.35.862-.35 1.422 0 .544.117 1.01.35 1.4.284.47.678.704 1.187.704.5 0 .892-.239 1.174-.717.242-.396.363-.866.363-1.41zM24.672 3.399l-1.84 5.892h-1.2l-.762-2.559c-.193-.638-.35-1.273-.473-1.903h-.024c-.113.647-.27 1.281-.473 1.904l-.81 2.558h-1.212L16.147 3.4h1.344l.665 2.801c.161.662.294 1.294.4 1.891h.023c.098-.492.259-1.12.486-1.878L19.9 3.4h1.066l.8 2.752c.194.672.351 1.318.472 1.94h.036c.089-.606.223-1.252.4-1.94l.714-2.752h1.284v-.001zM31.454 9.291h-1.308V5.916c0-1.04-.394-1.56-1.186-1.56-.388 0-.701.143-.945.429-.24.286-.363.624-.363 1.01V9.29h-1.308V5.083c0-.518-.016-1.08-.048-1.687h1.15l.061.921h.036c.153-.286.38-.522.678-.71.355-.22.752-.332 1.186-.332.55 0 1.006.178 1.37.534.451.436.677 1.087.677 1.952v3.53zM35.062 9.291L33.755 9.291 33.755.695 35.062.695zM42.764 6.296c0 .906-.259 1.649-.775 2.231-.542.6-1.261.898-2.156.898-.865 0-1.553-.286-2.065-.861C37.256 7.99 37 7.266 37 6.394c0-.913.264-1.662.793-2.243.53-.581 1.24-.872 2.136-.872.865 0 1.558.286 2.085.86.499.557.75 1.277.75 2.157zm-1.358.043c0-.544-.118-1.01-.351-1.399-.274-.47-.665-.705-1.172-.705-.527 0-.927.235-1.2.705-.235.389-.35.862-.35 1.422 0 .544.117 1.01.35 1.4.283.47.678.704 1.187.704.5 0 .89-.239 1.172-.717.244-.396.364-.866.364-1.41zM49.095 9.291H47.92l-.097-.678h-.036c-.402.54-.975.812-1.719.812-.556 0-1.005-.179-1.343-.534-.307-.322-.46-.723-.46-1.2 0-.72.299-1.268.902-1.648.601-.38 1.448-.567 2.537-.558v-.11c0-.776-.406-1.164-1.222-1.164-.58 0-1.092.146-1.534.436l-.266-.86c.547-.338 1.222-.508 2.019-.508 1.538 0 2.31.812 2.31 2.437v2.17c0 .589.028 1.058.084 1.405zm-1.358-2.025v-.909c-1.443-.025-2.165.372-2.165 1.188 0 .308.083.537.251.691.169.154.384.23.64.23.287 0 .555-.091.8-.272.245-.183.397-.414.453-.698.013-.064.02-.141.02-.23zM56.529 9.291h-1.161l-.061-.946h-.037c-.37.72-1.002 1.08-1.89 1.08-.709 0-1.299-.279-1.767-.836-.468-.558-.702-1.282-.702-2.17 0-.954.254-1.726.763-2.316.493-.55 1.097-.825 1.816-.825.79 0 1.343.266 1.658.8h.025V.694h1.31v7.009c0 .574.014 1.102.046 1.587zm-1.356-2.485v-.982c0-.17-.013-.308-.036-.413-.074-.315-.232-.58-.473-.793-.244-.214-.537-.322-.875-.322-.488 0-.87.194-1.151.583-.279.389-.42.885-.42 1.491 0 .582.134 1.055.402 1.419.284.387.666.581 1.144.581.43 0 .772-.161 1.033-.485.252-.299.376-.659.376-1.079zM67.717 6.296c0 .906-.258 1.649-.775 2.231-.542.6-1.258.898-2.156.898-.863 0-1.55-.286-2.065-.861-.511-.574-.767-1.298-.767-2.17 0-.913.263-1.662.792-2.243.53-.581 1.241-.872 2.139-.872.862 0 1.557.286 2.082.86.5.557.75 1.277.75 2.157zm-1.356.043c0-.544-.117-1.01-.35-1.399-.276-.47-.666-.705-1.175-.705-.524 0-.924.235-1.2.705-.234.389-.35.862-.35 1.422 0 .544.117 1.01.35 1.4.284.47.678.704 1.187.704.5 0 .893-.239 1.175-.717.241-.396.363-.866.363-1.41zM74.751 9.291h-1.307V5.916c0-1.04-.394-1.56-1.187-1.56-.388 0-.702.143-.944.429-.242.286-.363.624-.363 1.01V9.29h-1.31V5.083c0-.518-.014-1.08-.046-1.687h1.149l.061.921h.036c.154-.286.38-.522.678-.71.356-.22.751-.332 1.187-.332.548 0 1.005.178 1.368.534.453.436.678 1.087.678 1.952v3.53zM83.555 4.38h-1.44v2.862c0 .728.256 1.092.762 1.092.235 0 .43-.02.583-.061l.034.993c-.258.098-.598.146-1.016.146-.517 0-.919-.157-1.21-.472-.292-.315-.437-.845-.437-1.589V4.38h-.86v-.981h.86v-1.08l1.282-.388v1.466h1.441v.983h.001zM90.48 9.291h-1.309v-3.35c0-1.056-.394-1.585-1.184-1.585-.607 0-1.021.306-1.249.919-.038.129-.06.286-.06.471V9.29H85.37V.695h1.307v3.551h.025c.412-.646 1.003-.969 1.768-.969.541 0 .99.178 1.345.534.444.444.666 1.104.666 1.976v3.504zM97.625 6.066c0 .235-.018.433-.049.594h-3.923c.017.582.204 1.026.568 1.334.332.275.76.412 1.284.412.58 0 1.11-.092 1.587-.279l.204.91c-.558.243-1.214.364-1.974.364-.912 0-1.63-.268-2.149-.806-.522-.538-.78-1.259-.78-2.164 0-.888.241-1.628.727-2.218.506-.63 1.192-.946 2.057-.946.846 0 1.489.316 1.923.946.351.5.525 1.118.525 1.853zm-1.249-.338c.01-.39-.076-.724-.253-1.007-.227-.364-.573-.546-1.041-.546-.427 0-.775.178-1.041.534-.217.284-.346.622-.388 1.019h2.723z" transform="translate(-837 -6487) translate(98 6101) translate(739 386) translate(53.676 7.5)"/>
                    </g>
                </g>
            </g>
        </g>
    </g>
</svg>
